<svg width="124" height="40" viewBox="0 0 124 40" fill="none" xmlns="http://www.w3.org/2000/svg">
<rect x="0.5" y="0.5" width="123" height="39" rx="5.5" fill="black"/>
<rect x="0.5" y="0.5" width="123" height="39" rx="5.5" stroke="#A6A6A6"/>
<path d="M40.862 16.054C40.382 16.054 39.956 15.949 39.584 15.739C39.212 15.529 38.918 15.241 38.702 14.875C38.486 14.503 38.378 14.083 38.378 13.615C38.378 13.141 38.486 12.721 38.702 12.355C38.918 11.989 39.212 11.704 39.584 11.5C39.956 11.29 40.382 11.185 40.862 11.185C41.336 11.185 41.759 11.29 42.131 11.5C42.509 11.704 42.803 11.989 43.013 12.355C43.229 12.715 43.337 13.135 43.337 13.615C43.337 14.089 43.229 14.509 43.013 14.875C42.803 15.241 42.509 15.529 42.131 15.739C41.759 15.949 41.336 16.054 40.862 16.054ZM40.862 15.298C41.168 15.298 41.441 15.229 41.681 15.091C41.927 14.953 42.119 14.758 42.257 14.506C42.395 14.248 42.464 13.951 42.464 13.615C42.464 13.273 42.395 12.979 42.257 12.733C42.119 12.481 41.927 12.286 41.681 12.148C41.441 12.01 41.168 11.941 40.862 11.941C40.556 11.941 40.283 12.01 40.043 12.148C39.803 12.286 39.611 12.481 39.467 12.733C39.323 12.979 39.251 13.273 39.251 13.615C39.251 13.951 39.323 14.248 39.467 14.506C39.611 14.758 39.803 14.953 40.043 15.091C40.283 15.229 40.556 15.298 40.862 15.298ZM44.5319 16V11.23H45.3599V12.526L45.2789 12.202C45.4109 11.872 45.6329 11.62 45.9449 11.446C46.2569 11.272 46.6409 11.185 47.0969 11.185V12.022C47.0609 12.016 47.0249 12.013 46.9889 12.013C46.9589 12.013 46.9289 12.013 46.8989 12.013C46.4369 12.013 46.0709 12.151 45.8009 12.427C45.5309 12.703 45.3959 13.102 45.3959 13.624V16H44.5319ZM52.2783 16.054C51.7983 16.054 51.4263 15.925 51.1623 15.667C50.8983 15.409 50.7663 15.04 50.7663 14.56V10.186H51.6303V14.524C51.6303 14.782 51.6933 14.98 51.8193 15.118C51.9513 15.256 52.1373 15.325 52.3773 15.325C52.6473 15.325 52.8723 15.25 53.0523 15.1L53.3223 15.721C53.1903 15.835 53.0313 15.919 52.8453 15.973C52.6653 16.027 52.4763 16.054 52.2783 16.054ZM49.9563 11.941V11.23H52.9983V11.941H49.9563ZM54.3669 16V11.23H55.1949V12.526L55.1139 12.202C55.2459 11.872 55.4679 11.62 55.7799 11.446C56.0919 11.272 56.4759 11.185 56.9319 11.185V12.022C56.8959 12.016 56.8599 12.013 56.8239 12.013C56.7939 12.013 56.7639 12.013 56.7339 12.013C56.2719 12.013 55.9059 12.151 55.6359 12.427C55.3659 12.703 55.2309 13.102 55.2309 13.624V16H54.3669ZM58.3971 17.8C58.1691 17.8 57.9471 17.761 57.7311 17.683C57.5151 17.611 57.3291 17.503 57.1731 17.359L57.5421 16.711C57.6621 16.825 57.7941 16.912 57.9381 16.972C58.0821 17.032 58.2351 17.062 58.3971 17.062C58.6071 17.062 58.7811 17.008 58.9191 16.9C59.0571 16.792 59.1861 16.6 59.3061 16.324L59.6031 15.667L59.6931 15.559L61.5651 11.23H62.4111L60.0981 16.477C59.9601 16.813 59.8041 17.077 59.6301 17.269C59.4621 17.461 59.2761 17.596 59.0721 17.674C58.8681 17.758 58.6431 17.8 58.3971 17.8ZM59.5311 16.153L57.3531 11.23H58.2531L60.1071 15.478L59.5311 16.153ZM67.6774 16.054C67.1974 16.054 66.7714 15.949 66.3994 15.739C66.0274 15.529 65.7334 15.241 65.5174 14.875C65.3014 14.503 65.1934 14.083 65.1934 13.615C65.1934 13.141 65.3014 12.721 65.5174 12.355C65.7334 11.989 66.0274 11.704 66.3994 11.5C66.7714 11.29 67.1974 11.185 67.6774 11.185C68.1514 11.185 68.5744 11.29 68.9464 11.5C69.3244 11.704 69.6184 11.989 69.8284 12.355C70.0444 12.715 70.1524 13.135 70.1524 13.615C70.1524 14.089 70.0444 14.509 69.8284 14.875C69.6184 15.241 69.3244 15.529 68.9464 15.739C68.5744 15.949 68.1514 16.054 67.6774 16.054ZM67.6774 15.298C67.9834 15.298 68.2564 15.229 68.4964 15.091C68.7424 14.953 68.9344 14.758 69.0724 14.506C69.2104 14.248 69.2794 13.951 69.2794 13.615C69.2794 13.273 69.2104 12.979 69.0724 12.733C68.9344 12.481 68.7424 12.286 68.4964 12.148C68.2564 12.01 67.9834 11.941 67.6774 11.941C67.3714 11.941 67.0984 12.01 66.8584 12.148C66.6184 12.286 66.4264 12.481 66.2824 12.733C66.1384 12.979 66.0664 13.273 66.0664 13.615C66.0664 13.951 66.1384 14.248 66.2824 14.506C66.4264 14.758 66.6184 14.953 66.8584 15.091C67.0984 15.229 67.3714 15.298 67.6774 15.298ZM73.8943 11.185C74.2843 11.185 74.6263 11.26 74.9203 11.41C75.2203 11.56 75.4543 11.788 75.6223 12.094C75.7903 12.4 75.8743 12.787 75.8743 13.255V16H75.0103V13.354C75.0103 12.892 74.8963 12.544 74.6683 12.31C74.4463 12.076 74.1313 11.959 73.7233 11.959C73.4173 11.959 73.1503 12.019 72.9223 12.139C72.6943 12.259 72.5173 12.436 72.3913 12.67C72.2713 12.904 72.2113 13.195 72.2113 13.543V16H71.3473V11.23H72.1753V12.517L72.0403 12.175C72.1963 11.863 72.4363 11.62 72.7603 11.446C73.0843 11.272 73.4623 11.185 73.8943 11.185ZM81.5283 16.054C81.0483 16.054 80.6763 15.925 80.4123 15.667C80.1483 15.409 80.0163 15.04 80.0163 14.56V10.186H80.8803V14.524C80.8803 14.782 80.9433 14.98 81.0693 15.118C81.2013 15.256 81.3873 15.325 81.6273 15.325C81.8973 15.325 82.1223 15.25 82.3023 15.1L82.5723 15.721C82.4403 15.835 82.2813 15.919 82.0953 15.973C81.9153 16.027 81.7263 16.054 81.5283 16.054ZM79.2063 11.941V11.23H82.2483V11.941H79.2063ZM86.1639 11.185C86.5539 11.185 86.8959 11.26 87.1899 11.41C87.4899 11.56 87.7239 11.788 87.8919 12.094C88.0599 12.4 88.1439 12.787 88.1439 13.255V16H87.2799V13.354C87.2799 12.892 87.1659 12.544 86.9379 12.31C86.7159 12.076 86.4009 11.959 85.9929 11.959C85.6869 11.959 85.4199 12.019 85.1919 12.139C84.9639 12.259 84.7869 12.436 84.6609 12.67C84.5409 12.904 84.4809 13.195 84.4809 13.543V16H83.6169V9.322H84.4809V12.517L84.3099 12.175C84.4659 11.863 84.7059 11.62 85.0299 11.446C85.3539 11.272 85.7319 11.185 86.1639 11.185ZM91.8668 16.054C91.3568 16.054 90.9068 15.949 90.5168 15.739C90.1328 15.529 89.8328 15.241 89.6168 14.875C89.4068 14.509 89.3018 14.089 89.3018 13.615C89.3018 13.141 89.4038 12.721 89.6078 12.355C89.8178 11.989 90.1028 11.704 90.4628 11.5C90.8288 11.29 91.2398 11.185 91.6958 11.185C92.1578 11.185 92.5658 11.287 92.9198 11.491C93.2738 11.695 93.5498 11.983 93.7478 12.355C93.9518 12.721 94.0538 13.15 94.0538 13.642C94.0538 13.678 94.0508 13.72 94.0448 13.768C94.0448 13.816 94.0418 13.861 94.0358 13.903H89.9768V13.282H93.5858L93.2348 13.498C93.2408 13.192 93.1778 12.919 93.0458 12.679C92.9138 12.439 92.7308 12.253 92.4968 12.121C92.2688 11.983 92.0018 11.914 91.6958 11.914C91.3958 11.914 91.1288 11.983 90.8948 12.121C90.6608 12.253 90.4778 12.442 90.3458 12.688C90.2138 12.928 90.1478 13.204 90.1478 13.516V13.66C90.1478 13.978 90.2198 14.263 90.3638 14.515C90.5138 14.761 90.7208 14.953 90.9848 15.091C91.2488 15.229 91.5518 15.298 91.8938 15.298C92.1758 15.298 92.4308 15.25 92.6588 15.154C92.8928 15.058 93.0968 14.914 93.2708 14.722L93.7478 15.28C93.5318 15.532 93.2618 15.724 92.9378 15.856C92.6198 15.988 92.2628 16.054 91.8668 16.054Z" fill="white"/>
<path d="M42.144 32L38.432 20.8H40.592L43.904 30.928H42.832L46.272 20.8H48.192L51.536 30.928H50.496L53.888 20.8H55.872L52.16 32H49.952L46.896 22.864H47.472L44.368 32H42.144ZM60.7499 32.112C59.8005 32.112 58.9685 31.9253 58.2539 31.552C57.5499 31.168 57.0005 30.6453 56.6059 29.984C56.2219 29.3227 56.0299 28.5707 56.0299 27.728C56.0299 26.8747 56.2165 26.1227 56.5899 25.472C56.9739 24.8107 57.4965 24.2933 58.1579 23.92C58.8299 23.5467 59.5925 23.36 60.4459 23.36C61.2779 23.36 62.0192 23.5413 62.6699 23.904C63.3205 24.2667 63.8325 24.7787 64.2059 25.44C64.5792 26.1013 64.7659 26.88 64.7659 27.776C64.7659 27.8613 64.7605 27.9573 64.7499 28.064C64.7499 28.1707 64.7445 28.272 64.7339 28.368H57.6139V27.04H63.6779L62.8939 27.456C62.9045 26.9653 62.8032 26.5333 62.5899 26.16C62.3765 25.7867 62.0832 25.4933 61.7099 25.28C61.3472 25.0667 60.9259 24.96 60.4459 24.96C59.9552 24.96 59.5232 25.0667 59.1499 25.28C58.7872 25.4933 58.4992 25.792 58.2859 26.176C58.0832 26.5493 57.9819 26.992 57.9819 27.504V27.824C57.9819 28.336 58.0992 28.7893 58.3339 29.184C58.5685 29.5787 58.8992 29.8827 59.3259 30.096C59.7525 30.3093 60.2432 30.416 60.7979 30.416C61.2779 30.416 61.7099 30.3413 62.0939 30.192C62.4779 30.0427 62.8192 29.808 63.1179 29.488L64.1899 30.72C63.8059 31.168 63.3205 31.5147 62.7339 31.76C62.1579 31.9947 61.4965 32.112 60.7499 32.112ZM71.423 32.112C70.6977 32.112 70.0523 31.952 69.487 31.632C68.9217 31.312 68.4737 30.832 68.143 30.192C67.823 29.5413 67.663 28.72 67.663 27.728C67.663 26.7253 67.8283 25.904 68.159 25.264C68.5003 24.624 68.9537 24.1493 69.519 23.84C70.095 23.52 70.7297 23.36 71.423 23.36C72.2657 23.36 73.007 23.5413 73.647 23.904C74.2977 24.2667 74.8097 24.7733 75.183 25.424C75.567 26.0747 75.759 26.8427 75.759 27.728C75.759 28.6133 75.567 29.3813 75.183 30.032C74.8097 30.6827 74.2977 31.1947 73.647 31.568C73.007 31.9307 72.2657 32.112 71.423 32.112ZM66.687 32V20.128H68.687V25.44L68.527 27.712L68.591 29.984V32H66.687ZM71.199 30.4C71.679 30.4 72.1057 30.2933 72.479 30.08C72.863 29.8667 73.167 29.5573 73.391 29.152C73.615 28.7467 73.727 28.272 73.727 27.728C73.727 27.1733 73.615 26.6987 73.391 26.304C73.167 25.8987 72.863 25.5893 72.479 25.376C72.1057 25.1627 71.679 25.056 71.199 25.056C70.719 25.056 70.287 25.1627 69.903 25.376C69.519 25.5893 69.215 25.8987 68.991 26.304C68.767 26.6987 68.655 27.1733 68.655 27.728C68.655 28.272 68.767 28.7467 68.991 29.152C69.215 29.5573 69.519 29.8667 69.903 30.08C70.287 30.2933 70.719 30.4 71.199 30.4Z" fill="white"/>
<path d="M20 30C25.5228 30 30 25.5228 30 20C30 14.4772 25.5228 10 20 10C14.4772 10 10 14.4772 10 20C10 25.5228 14.4772 30 20 30Z" stroke="white" stroke-width="2" stroke-linecap="round" stroke-linejoin="round"/>
<path d="M20 10C17.4322 12.6962 16 16.2767 16 20C16 23.7233 17.4322 27.3038 20 30C22.5678 27.3038 24 23.7233 24 20C24 16.2767 22.5678 12.6962 20 10Z" stroke="white" stroke-width="2" stroke-linecap="round" stroke-linejoin="round"/>
<path d="M10 20H30" stroke="white" stroke-width="2" stroke-linecap="round" stroke-linejoin="round"/>
</svg>
