<svg width="301" height="32" viewBox="0 0 301 32" fill="none" xmlns="http://www.w3.org/2000/svg">
<path d="M295.452 0C298.213 4.55389e-05 300.452 2.2386 300.452 5V27C300.452 29.7614 298.213 32 295.452 32H148.548C145.787 32 143.548 29.7614 143.548 27V5C143.548 2.23858 145.787 0 148.548 0H295.452ZM163.404 8.08594C162.147 8.08594 160.981 8.29211 159.908 8.70605C158.835 9.11998 157.899 9.70296 157.102 10.4541C156.305 11.2054 155.683 12.0876 155.239 13.0996C154.809 14.1115 154.594 15.2153 154.594 16.4111C154.594 17.6071 154.809 18.7116 155.239 19.7236C155.683 20.7355 156.297 21.6169 157.079 22.3682C157.876 23.1194 158.811 23.7022 159.884 24.1162C160.973 24.5302 162.154 24.7373 163.426 24.7373C164.684 24.7373 165.842 24.5302 166.9 24.1162C167.973 23.7022 168.901 23.1275 169.683 22.3916C170.48 21.6403 171.101 20.758 171.545 19.7461C171.99 18.7188 172.212 17.607 172.212 16.4111C172.212 15.2 171.99 14.0962 171.545 13.0996C171.101 12.0876 170.48 11.2054 169.683 10.4541C168.901 9.70278 167.973 9.12005 166.9 8.70605C165.842 8.29207 164.676 8.08596 163.404 8.08594ZM262.569 8.08594C261.312 8.08594 260.146 8.29211 259.073 8.70605C258 9.11998 257.064 9.70296 256.267 10.4541C255.47 11.2054 254.848 12.0876 254.404 13.0996C253.975 14.1115 253.759 15.2153 253.759 16.4111C253.759 17.6071 253.974 18.7116 254.404 19.7236C254.848 20.7355 255.462 21.6169 256.244 22.3682C257.041 23.1194 257.976 23.7022 259.049 24.1162C260.138 24.5302 261.319 24.7373 262.591 24.7373C263.849 24.7373 265.007 24.5302 266.065 24.1162C267.138 23.7022 268.066 23.1275 268.848 22.3916C269.645 21.6403 270.266 20.758 270.71 19.7461C271.155 18.7188 271.377 17.607 271.377 16.4111C271.377 15.2 271.155 14.0962 270.71 13.0996C270.266 12.0876 269.645 11.2054 268.848 10.4541C268.066 9.70278 267.138 9.12005 266.065 8.70605C265.007 8.29207 263.841 8.08596 262.569 8.08594ZM175.013 8.36133V24.4619H178.739V20.0225H181.982C183.423 20.0225 184.665 19.7929 185.708 19.333C186.75 18.8577 187.555 18.1825 188.123 17.3086C188.69 16.4346 188.974 15.3991 188.974 14.2031C188.974 12.992 188.69 11.9491 188.123 11.0752C187.555 10.2014 186.75 9.53415 185.708 9.07422C184.665 8.59902 183.423 8.36133 181.982 8.36133H175.013ZM191.634 8.36133V24.4619H204.1V21.4717H195.337V17.7451H202.812V14.8477H195.337V11.3516H203.801V8.36133H191.634ZM207.065 8.36133V24.4619H210.791V19.9766H214.034C214.092 19.9766 214.149 19.9734 214.207 19.9727L217.299 24.4619H221.325L217.727 19.2988C217.738 19.2942 217.749 19.2908 217.759 19.2861C218.802 18.8262 219.607 18.1672 220.174 17.3086C220.742 16.4346 221.026 15.3991 221.026 14.2031C221.026 12.992 220.742 11.9491 220.174 11.0752C219.607 10.2014 218.802 9.53415 217.759 9.07422C216.717 8.59902 215.475 8.36133 214.034 8.36133H207.065ZM229.038 8.36133L221.862 24.4619H225.68L227.115 21.0117H234.578L236.006 24.4619H239.917L232.717 8.36133H229.038ZM238.961 8.36133V11.3975H244.114V24.4619H247.839V11.3975H252.992V8.36133H238.961ZM274.178 8.36133V24.4619H277.904V19.9766H281.147C281.205 19.9766 281.263 19.9734 281.32 19.9727L284.413 24.4619H288.438L284.84 19.2988C284.851 19.2942 284.862 19.2908 284.873 19.2861C285.915 18.8262 286.72 18.1672 287.288 17.3086C287.855 16.4346 288.139 15.3991 288.139 14.2031C288.139 12.992 287.855 11.9491 287.288 11.0752C286.72 10.2014 285.915 9.53415 284.873 9.07422C283.83 8.59902 282.588 8.36133 281.147 8.36133H274.178ZM163.404 11.2598C164.124 11.2598 164.791 11.3826 165.405 11.6279C166.018 11.8733 166.547 12.2256 166.992 12.6855C167.452 13.1455 167.804 13.6898 168.049 14.3184C168.31 14.9469 168.441 15.6446 168.441 16.4111C168.441 17.1778 168.31 17.8762 168.049 18.5049C167.804 19.1334 167.452 19.6778 166.992 20.1377C166.532 20.5977 165.995 20.95 165.381 21.1953C164.783 21.4406 164.124 21.5635 163.404 21.5635C162.683 21.5635 162.016 21.4406 161.403 21.1953C160.789 20.95 160.252 20.5977 159.792 20.1377C159.348 19.6778 158.996 19.1334 158.735 18.5049C158.49 17.8609 158.367 17.1625 158.367 16.4111C158.367 15.6446 158.49 14.9469 158.735 14.3184C158.996 13.6898 159.356 13.1455 159.816 12.6855C160.276 12.2256 160.805 11.8732 161.403 11.6279C162.016 11.3826 162.683 11.2598 163.404 11.2598ZM262.569 11.2598C263.289 11.2598 263.957 11.3826 264.57 11.6279C265.183 11.8733 265.712 12.2256 266.157 12.6855C266.617 13.1455 266.969 13.6898 267.214 14.3184C267.475 14.9469 267.606 15.6446 267.606 16.4111C267.606 17.1778 267.475 17.8762 267.214 18.5049C266.969 19.1334 266.617 19.6778 266.157 20.1377C265.697 20.5977 265.16 20.95 264.546 21.1953C263.948 21.4406 263.289 21.5635 262.569 21.5635C261.848 21.5635 261.181 21.4406 260.568 21.1953C259.955 20.95 259.418 20.5977 258.958 20.1377C258.513 19.6778 258.161 19.1334 257.9 18.5049C257.655 17.8609 257.532 17.1625 257.532 16.4111C257.532 15.6446 257.655 14.9469 257.9 14.3184C258.161 13.6898 258.521 13.1455 258.981 12.6855C259.441 12.2256 259.97 11.8732 260.568 11.6279C261.181 11.3826 261.848 11.2598 262.569 11.2598ZM233.406 18.1826H228.291L230.853 12.0195L233.406 18.1826ZM280.94 11.3975C282.09 11.3975 282.949 11.6431 283.516 12.1338C284.083 12.6244 284.367 13.3141 284.367 14.2031C284.367 15.077 284.083 15.7674 283.516 16.2734C282.949 16.7641 282.09 17.0098 280.94 17.0098H277.904V11.3975H280.94ZM213.827 11.3975C214.977 11.3975 215.835 11.6431 216.403 12.1338C216.97 12.6244 217.253 13.3141 217.253 14.2031C217.253 15.077 216.97 15.7674 216.403 16.2734C215.835 16.7641 214.977 17.0098 213.827 17.0098H210.791V11.3975H213.827ZM181.775 11.3975C182.925 11.3975 183.784 11.6431 184.351 12.1338C184.918 12.6244 185.202 13.3141 185.202 14.2031C185.202 15.0771 184.918 15.7603 184.351 16.251C183.784 16.7416 182.925 16.9863 181.775 16.9863H178.739V11.3975H181.775Z" fill="#1782FF"/>
<path d="M89.2289 0C90.2616 0 91.0988 0.837825 91.0988 1.87133V29.5439C91.0988 29.6085 91.0465 29.6608 90.9819 29.6608H88.4389C87.4062 29.6608 86.5691 28.823 86.5691 27.7895V0.116958C86.5691 0.0523641 86.6214 0 86.6859 0H89.2289Z" fill="black"/>
<path d="M18.3176 15.8689C18.9798 14.6229 19.3109 13.2974 19.3109 11.8923C19.3109 10.3547 18.9401 8.26116 18.1984 7.01516C17.4832 5.76917 16.3838 4.78828 14.9004 4.07249C13.4435 3.33019 11.6554 2.95905 9.53627 2.95905H0.116866C0.0523227 2.95905 0 3.01141 0 3.076V6.77423C0 6.83882 0.0523228 6.89119 0.116866 6.89119H9.53627C12.9534 6.89119 14.662 8.87012 14.662 11.8923C14.662 13.3239 14.2382 14.2034 13.3905 14.9987C12.5428 15.7675 11.2581 16.3859 9.53627 16.3859H4.64659C4.58205 16.3859 4.52973 16.3335 4.52973 16.2689V7.37956C4.52973 7.30633 4.46325 7.25111 4.39132 7.26461L1.52526 7.80242C0.640872 7.96837 0 8.74119 0 9.6417V30.6867C0 30.7608 0.0679765 30.8162 0.140489 30.8012L3.03784 30.2027C3.90654 30.0233 4.52973 29.2577 4.52973 28.37V20.6689C4.52973 20.6043 4.58205 20.5519 4.64659 20.5519H9.53627C12.1504 20.5519 13.9034 19.9533 15.3058 19.0176C16.7082 18.082 17.6553 17.1149 18.3176 15.8689Z" fill="black"/>
<path d="M52.2387 11.4414C52.2387 11.5603 52.3996 11.6059 52.4657 11.5072C53.0965 10.5661 53.895 9.82428 54.8612 9.28182C55.9449 8.66205 57.2172 8.34413 58.678 8.32808C58.7425 8.32737 58.7949 8.3798 58.7949 8.4444V12.9028C58.7949 12.9674 58.7426 13.0198 58.678 13.0198H57.6426C55.8678 13.0198 54.5168 13.4705 53.5897 14.3718C52.6891 15.2732 52.2387 16.8373 52.2387 19.0642V30.9476C52.2387 31.0122 52.1864 31.0645 52.1219 31.0645H47.8259C47.7613 31.0645 47.709 31.0122 47.709 30.9476V8.80229C47.709 8.73769 47.7613 8.68533 47.8259 8.68533H52.1219C52.1864 8.68533 52.2387 8.73769 52.2387 8.80229V11.4414Z" fill="black"/>
<path d="M100.033 32C100.098 32 100.15 31.9476 100.15 31.883V4.2105C100.15 3.17699 99.3127 2.33917 98.28 2.33917H95.737C95.6725 2.33917 95.6201 2.39153 95.6201 2.45613V30.1287C95.6201 31.1622 96.4573 32 97.49 32H100.033Z" fill="black"/>
<path fill-rule="evenodd" clip-rule="evenodd" d="M125.232 18.9802C125.232 19.7615 125.184 20.471 125.089 21.1086C125.08 21.1654 125.031 21.2071 124.974 21.2071H108.471C108.403 21.2071 108.349 21.2652 108.356 21.333C108.509 23.0243 109.155 24.3874 110.292 25.4223C111.458 26.4827 112.888 27.0129 114.583 27.0129C116.994 27.0129 118.705 26.014 119.716 24.0163C119.736 23.9766 119.777 23.9509 119.822 23.9509H124.475C124.554 23.9509 124.611 24.0288 124.585 24.1041C123.912 26.0499 122.724 27.6557 121.02 28.9217C119.299 30.1942 117.153 30.8304 114.583 30.8304C112.491 30.8304 110.61 30.3665 108.941 29.4386C107.299 28.4842 106.001 27.1587 105.047 25.462C104.12 23.7388 103.657 21.7505 103.657 19.4971C103.657 17.2437 104.107 15.2687 105.007 13.572C105.935 11.8488 107.219 10.5233 108.862 9.59545C110.531 8.66758 112.438 8.20364 114.583 8.20364C116.65 8.20364 118.491 8.65432 120.107 9.55568C121.722 10.457 122.981 11.7295 123.881 13.3732C124.782 14.9904 125.232 16.8593 125.232 18.9802ZM120.385 17.5486C120.45 17.5486 120.503 17.4949 120.501 17.4297C120.449 15.8148 119.854 14.5156 118.716 13.5323C117.55 12.5249 116.107 12.0212 114.385 12.0212C112.822 12.0212 111.484 12.5249 110.372 13.5323C109.288 14.4877 108.632 15.7827 108.402 17.4172C108.393 17.4868 108.447 17.5486 108.517 17.5486H120.385Z" fill="black"/>
<path d="M132.883 30.8304C132.948 30.8304 133 30.7781 133 30.7135V3.04092C133 2.00741 132.163 1.16958 131.13 1.16958H128.587C128.523 1.16958 128.47 1.22195 128.47 1.28654V28.9591C128.47 29.9926 129.307 30.8304 130.34 30.8304H132.883Z" fill="black"/>
<path fill-rule="evenodd" clip-rule="evenodd" d="M32.2514 31.0643C34.6749 31.0643 36.9131 30.2364 38.7206 28.8366C38.7984 28.7764 38.9127 28.8312 38.9127 28.9296V30.9474C38.9127 31.012 38.9651 31.0643 39.0296 31.0643H43.4705C43.5351 31.0643 43.5874 31.012 43.5874 30.9474V8.49136C43.5874 8.42677 43.5351 8.3744 43.4705 8.3744H39.0296C38.9651 8.3744 38.9127 8.42677 38.9127 8.49136V10.5091C38.9127 10.6075 38.7984 10.6623 38.7206 10.6021C36.9131 9.20238 34.6749 8.3744 32.2514 8.3744C26.2488 8.3744 21.3828 13.4537 21.3828 19.7194C21.3828 25.985 26.2488 31.0643 32.2514 31.0643ZM32.4851 26.6199C36.2932 26.6199 39.1465 23.5304 39.1465 19.7194C39.1465 15.9083 36.2932 12.8188 32.4851 12.8188C28.677 12.8188 25.8237 15.9083 25.8237 19.7194C25.8237 23.5304 28.677 26.6199 32.4851 26.6199Z" fill="black"/>
<path fill-rule="evenodd" clip-rule="evenodd" d="M71.0509 31.0643C73.4744 31.0643 75.7126 30.2364 77.5201 28.8366C77.5979 28.7764 77.7123 28.8312 77.7123 28.9296V30.9474C77.7123 31.012 77.7646 31.0643 77.8291 31.0643H82.27C82.3346 31.0643 82.3869 31.012 82.3869 30.9474V8.49136C82.3869 8.42677 82.3346 8.3744 82.27 8.3744H77.8291C77.7646 8.3744 77.7123 8.42677 77.7123 8.49136V10.5091C77.7123 10.6075 77.5979 10.6623 77.5201 10.6021C75.7126 9.20238 73.4744 8.3744 71.0509 8.3744C65.0484 8.3744 60.1823 13.4537 60.1823 19.7194C60.1823 25.985 65.0484 31.0643 71.0509 31.0643ZM71.2846 26.6199C75.0927 26.6199 78.1797 23.5304 78.1797 19.7194C78.1797 15.9083 75.0927 12.8188 71.2846 12.8188C67.4766 12.8188 64.6233 15.9083 64.6233 19.7194C64.6233 23.5304 67.4766 26.6199 71.2846 26.6199Z" fill="black"/>
</svg>
