<svg width="649" height="136" viewBox="0 0 649 136" fill="none" xmlns="http://www.w3.org/2000/svg">
<path d="M619 6.20881V4H630.605V6.20881H626.109V18.5455H623.496V6.20881H619Z" fill="black"/>
<path d="M632.842 4H636.067L640.385 14.5398H640.555L644.874 4H648.098V18.5455H645.57V8.55256H645.435L641.415 18.5028H639.526L635.506 8.53125H635.371V18.5455H632.842V4Z" fill="black"/>
<path d="M238.361 50.068C238.361 50.5653 239.02 50.7649 239.308 50.3594C242.539 45.8058 246.474 42.1894 251.111 39.51C255.661 36.7804 260.661 35.2683 266.112 34.9735C267.215 34.9139 268.111 35.8154 268.111 36.92V63.69C268.111 64.7946 267.216 65.69 266.111 65.69H260.121C252.868 65.69 247.428 67.2767 243.801 70.45C240.175 73.51 238.361 78.95 238.361 86.77V128.8C238.361 129.905 237.466 130.8 236.361 130.8H211.291C210.187 130.8 209.291 129.905 209.291 128.8V37.94C209.291 36.8354 210.187 35.94 211.291 35.94H236.361C237.466 35.94 238.361 36.8354 238.361 37.94V50.068Z" fill="black"/>
<path d="M404.257 0C409.78 0 414.257 4.47715 414.257 10V123.8C414.257 124.905 413.362 125.8 412.257 125.8H395.187C389.664 125.8 385.187 121.323 385.187 115.8V2C385.187 0.895428 386.083 0 387.187 0H404.257Z" fill="black"/>
<path d="M449.294 10C454.817 10 459.294 14.4772 459.294 20V133.8C459.294 134.905 458.398 135.8 457.294 135.8H440.224C434.701 135.8 430.224 131.323 430.224 125.8V12C430.224 10.8954 431.119 10 432.224 10H449.294Z" fill="black"/>
<path d="M564.68 81.84C564.68 84.0102 564.572 86.2526 564.356 88.5671C564.261 89.5786 563.404 90.34 562.388 90.34H500.54C499.375 90.34 498.449 91.3335 498.617 92.4864C499.323 97.3455 501.115 101.163 503.99 103.94C507.39 107 511.527 108.53 516.4 108.53C523.188 108.53 528.04 105.851 530.957 100.492C531.329 99.8077 532.029 99.35 532.808 99.35H559.898C561.202 99.35 562.159 100.58 561.762 101.823C560.086 107.076 557.432 111.862 553.8 116.18C549.72 121.167 544.564 125.077 538.33 127.91C532.097 130.743 525.127 132.16 517.42 132.16C508.127 132.16 499.854 130.177 492.6 126.21C485.347 122.243 479.68 116.577 475.6 109.21C471.52 101.843 470.5 98.5 469.48 88.37C468.461 78.24 471.464 64.8967 475.43 57.53C479.51 50.1633 485.177 44.4967 492.43 40.53C499.684 36.5633 508.014 34.58 517.42 34.58C526.6 34.58 534.76 36.5067 541.9 40.36C549.04 44.2133 554.594 49.71 558.56 56.85C562.64 63.99 564.68 72.32 564.68 81.84ZM532.93 74.19C534.035 74.19 534.943 73.2917 534.834 72.1925C534.431 68.1327 532.763 64.8318 529.83 62.29C526.43 59.3433 522.18 57.87 517.08 57.87C512.207 57.87 508.07 59.2867 504.67 62.12C501.881 64.5248 499.989 67.7868 498.996 71.906C498.709 73.0963 499.653 74.19 500.878 74.19H532.93Z" fill="black"/>
<path d="M593.986 5C599.509 5 603.986 9.47715 603.986 15V128.8C603.986 129.905 603.091 130.8 601.986 130.8H584.916C579.394 130.8 574.916 126.323 574.916 120.8V7C574.916 5.89543 575.812 5 576.916 5H593.986Z" fill="black"/>
<path d="M2.65401 131.739C1.30264 132.065 0 131.051 0 129.673V47.7358C0 41.8525 4.06086 36.732 9.83067 35.3401L25.6228 31.5303C26.9742 31.2043 28.2768 32.2183 28.2768 33.5962V65.3897C28.2768 66.5641 29.2377 67.5161 30.4231 67.5161H42.2153C46.4807 67.5161 50.0414 66.7183 52.8977 65.1228C55.792 63.5273 57.9818 61.2977 59.4671 58.434C60.9523 55.5294 61.6949 52.1543 61.6949 48.3087C61.6949 44.4223 60.9523 41.0676 59.4671 38.2448C57.9818 35.3811 55.792 33.172 52.8977 31.6174C50.0034 30.0628 46.4426 29.2855 42.2153 29.2855H34.9465C34.9438 29.2855 34.9412 29.2845 34.9392 29.2828V29.2828V29.2828C34.9372 29.281 34.9346 29.28 34.9319 29.28H2.14623C0.960898 29.28 0 28.328 0 27.1537V6.9271C0 5.75277 0.960898 4.80078 2.14623 4.80078H48.3277C57.0868 4.80078 64.6464 6.64175 71.0063 10.3237C77.4043 13.9647 82.3361 19.058 85.8016 25.6036C89.2672 32.1083 91 39.6767 91 48.3087C91 56.9817 89.2291 64.5705 85.6874 71.0753C82.1837 77.5391 77.1758 82.5506 70.6635 86.1097C64.1513 89.6689 56.4204 91.4485 47.4708 91.4485H30.4231C29.2377 91.4485 28.2768 92.4005 28.2768 93.5748V115.534C28.2768 121.417 24.216 126.538 18.4462 127.93L2.65401 131.739Z" fill="black"/>
<path fill-rule="evenodd" clip-rule="evenodd" d="M143.5 130.801C152.147 130.801 160.254 128.49 167.238 124.453C167.574 124.259 168 124.499 168 124.889V128.801C168 129.905 168.895 130.801 170 130.801H192C193.105 130.801 194 129.905 194 128.801V37.8008C194 36.6962 193.105 35.8008 192 35.8008H170C168.895 35.8008 168 36.6962 168 37.8008V41.713C168 42.1021 167.574 42.343 167.238 42.1482C160.254 38.1111 152.147 35.8008 143.5 35.8008C117.266 35.8008 96 57.0673 96 83.3008C96 109.534 117.266 130.801 143.5 130.801ZM146 106.801C158.703 106.801 169 96.5033 169 83.8008C169 71.0982 158.703 60.8008 146 60.8008C133.297 60.8008 123 71.0982 123 83.8008C123 96.5033 133.297 106.801 146 106.801Z" fill="black"/>
<path fill-rule="evenodd" clip-rule="evenodd" d="M320.5 130.801C328.742 130.801 336.493 128.702 343.248 125.009C343.585 124.825 344 125.067 344 125.451V128.801C344 129.905 344.895 130.801 346 130.801H368C369.105 130.801 370 129.905 370 128.801V37.8008C370 36.6962 369.105 35.8008 368 35.8008H346C344.895 35.8008 344 36.6962 344 37.8008V41.151C344 41.5348 343.585 41.7762 343.248 41.5922C336.493 37.8997 328.742 35.8008 320.5 35.8008C294.266 35.8008 273 57.0673 273 83.3008C273 109.534 294.266 130.801 320.5 130.801ZM322 106.801C334.703 106.801 345 96.5033 345 83.8008C345 71.0982 334.703 60.8008 322 60.8008C309.297 60.8008 299 71.0982 299 83.8008C299 96.5033 309.297 106.801 322 106.801Z" fill="black"/>
</svg>
